<?xml version="1.0" encoding="UTF-8"?>
<svg id="Calque_1" xmlns="http://www.w3.org/2000/svg" version="1.1" viewBox="0 0 500 500">
  <!-- Generator: Adobe Illustrator 29.2.1, SVG Export Plug-In . SVG Version: 2.1.0 Build 116)  -->
  <defs>
    <style>
      .st0 {
        fill: #fff;
      }
    </style>
  </defs>
  <circle class="st0" cx="250" cy="250" r="250"/>
  <g>
    <path d="M261.2,282.5c2,.2,9.1,1.6,8.3,4.6-1.4,1.5-3.5.9-5.2,2.2s-1.6,2.7-2.8,3.4c-2.3,1.4-8.9,1.1-11.2-.2s-.9-1.4-1.8-2c-2.2-1.4-4.2-1.6-5.9-2.6s-2.5-3-3.5-3.2c-3.7-.9-6.9,3.8-8.4,3.5-1.9-.9-3.1-4.4-2.9-6.3.5-3.4,5.4-3.3,7.5-4.2s2.4-2.1,4-2.7c4.3-1.6,10.6-.6,14.2-1.7s6-4.4,6.4-5.3c2.1-4.6-5.7-5.3-6.7-6.7s-1.2-6.6-.9-8.2,3-6.4,3.4-7c1.3-2.3,5.5-6.5,7.2-8.7s3.3-8.1,3.4-10.7-.7-7.3-.9-7.6c-.5-.8-.9-.5-1.6-.3-1.8.5-4.1,3.4-6.5,3.9-8,1.7-5.1-4-6.8-6.3s-3-1-4.1-2.1c-1.8-1.8-.8-5.8-4.9-6.2s-3.7,5.7-6.8,6.6-7.1-1.6-8.5-1.5-2.5,2.8-3.4,3.2-1.7-.4-2.6-.2-1.6,1-2.6,1.1-7.1-1.5-7.5-2c-.6-.6-2.1-5.3-2.9-6.5-2.6-3.8-7.5-4.3-10.7-1s-4.4,8.1-4.6,8.9.2,4.5.4,5.2c2.5,10.3,6,20.2,8.5,30.7.3,1.2,0,2.7.2,4.1,1,4.5,5,9,5.4,14.9s.5,4.2,2.8,10.1.6,4.6,1.2,6.1,3.1,3.4,4.1,5.7,3,8.4,2.1,9.7l-5.2,1.9c.1,5.5,4.6.4,6.3.5s9.7,3.7,11.3,5.3c2.8,3.7,16.5,16.8,20.2,17.8s4.5-.5,6.5-.3,8.1,1,9.1,1.3c1.4.4,2,3,3.5,3.8s5.7,1.3,7.9,1.8,1.5,1.3,2.8,1.5c3.2.6,7.7-.5,11,0s2.2,1.4,4.1,1.2,8.2-2.8,8.7-3c2.8-1.5,4.6-6.3,6.5-6.9s4-.5,6.4-2.8c3,.7-.7,3.5-1.2,4.3-6.5,12.8-9.6,13.8-20.2,22.6-4,3.3-2,2.8-7.4,5.5-5.7,2.8-10.4,9.2-17.2,9.6-7.3.4-11-.3-18.7,1.6-3.2.8-13.5,3.7-15.2,5.6s-3.5,4.7-3.6,5c-.3,1.3.6,2.7.6,4.1-.2,2.7-.7,5.9-3.1,7.4s-9.8,3.8-11.4,4c-3.1.4-8.8-3.3-11.3.3s-1.5,5.6-1.6,6.3c-.5,3.9,1.7,14.7,2.5,19.3s2.4,6.1,1.6,11.2c-.5,3.3-8.1,6.2-11.3,5.9s-6.2-3.5-8-4.9c-7.5-6-21.9-19-24.9-28.3s-.2-3.7-.7-5.4-2.5-2.9-3.2-5.3-.5-8.4-1.7-10.5-2.9-.2-3.3-3.4,1.3-3.4,2.7-5.8c2.2-3.9,2.9-7.5,7.4-10.4s7.5-2.1,9.4-5.9c-.2-7.9.7-16.5.1-24.4-.6-8.1-2.5-19.2-3.7-27.5s-2.9-9.7-3.4-13.7.2-12.4-2.6-13.9-3.2-.4-4.8-1.3c-5.7-3.1-13.8-9.1-17.3-14.5s-1.5-8.8-2.4-14.8c-.4-3.2-3-5.2-3.5-8.2s.2-4.6-.2-6.6-1.4-2-1.7-3.2c-.8-3.1-.9-9.5.2-12.5s2.4-5.7,3.3-7.7,2.1-2.6,2.8-3.9c2.4-4.3-.8-16.2-.9-21.1s.8-7.8-.1-11.5-4.7-8.5-7.1-11.9c-5-7.1-3.4-28.1,3.6-34.2s2.6-1,3.7-1.8,1.4-2.7,2.5-3.6,4.7-3,6.4-4.6c3.4-3.3,10.7-13,.2-10.3s-6.1,3.5-6.6,3.8c-1.5,1.1-3.1,5.7-3.6,0,.4-1.1,2-.7,2.3-1.1s0-1.7.7-2.6,3.2-1.1,4.1-1.7c5.6-4.1,8.3-4.1,14.3-6.9,3.3-1.5,6.7-3,8.3-6.4,2.7,1,1.2,3,4.9,2.5s6.7-2.9,7.5-3.5c1.8-1.3,1.5-4,3.2-5.5s2.6-1,3.7-1.8c6.3-4.6,14.1-11.8,22.4-11.9s9.9,1.4,10.7.6l-.4-1.9c-3.3-1.4-6.3.5-9.7,0s-4.6-1.3-6.2-1.8-1.1.3-.9-1.2c4.4-1.3,9.4-1.2,13.6-2s4.4-2.4,6.3-2.4c3,0,4.6,5.3,7.5,6.7s12.9,3.1,15,2.5,1.8-2.3,3.2-2.3,4.2,3,8.5,1.7,7.5-6.6,7.5-2.9c0,4.1-.4,5.8,4,7.5s8.1,2.7,8.9,2.8c1.7.2,3.2-.8,4.8,0l.4,3c1.9,1.3,3.8-.2,5.7,0s3.1,1.9,5,2.4c3,.8,6.1.2,8.6,1.2s7.3,4.2,11.1,5.4,9.1.9,11.5,1.9,1.7.6,1.5,1.6l-1.8,2.4c2.8,5.3,7.4,3.3,11.4,5.1s3,3.3,4.6,4,3.2.3,4.8.7c2.4.7,4,3.2,7.3,3.7s4.6-.5,7.4-.3c-1.1,2.9-.7,6.6-2.2,9.2-3-1.8-4.1-.7-6.7-.6s-4.7-1.8-4.6.9,1,1.5,1.2,2.5c1.2,6.5.9,3.5,3.6,8s1.7,6.5,1.3,9.1-1.1,2.1-1.2,3.1c-.4,2.4,0,7.5,1.3,9.7s4.3,2.2,5.1,3.5.1,4.1,2.4,5.5,5-2,5.9-1.3c.5,2.6,1,4.6.2,7.2s-4,8.1-4.4,9.7,1.6,4.5,0,6.7-8.1,2.8-9.8,3.6-1.6,2.6-2.3,2.7c-4,1.1-9.9-4.1-7.5,5.5-4.6.2-8.2,1-10.1,5.5-.7.2-3.1-2.5-4.3-3.1-6.1-3.2-14.9.4-21.4-.6s-2.4-1.3-3.7-1.8c-2.6-1-5.4,0-5.2-4.2,3.9,0,7-2.5,10.3-3.5s8.9.2,6.3-4.2-6.7-6.8-7.2-6.9c-5.5-1.3-6.2,5.7-7.9,8.5s-3.8,4-4.4,4.2c-1.8.5-9.9-1.6-12.7-1.7s-2.5,1-4.1.5-3.1-2.4-4.3-3.1c-2.5-1.4-6.1-.7-5.2-5s8.6-4.5,6.1-7.5c-1.8-2.2-5.7,0-7.9.2s-9-.2-9.7.8c-.6,1.4,0,3-.6,4.3s-1.6.9-2,1.4c-1.2,1.4.2,9.9.2,12.4-.4,2.6-8.5,2.9-10.5,2.7s-5-1.5-7.4-1.8c-4.7-.6-16.3.9-21.2,2s-3.3,3-7.2,7.8c.8.6,5.7-1.8,7.1-1.8s2.1,1.1,3.7,1.2,15.7-1.4,17.7-1.9c5-1.2,8.5-4.9,14.6-2.2s3,3.9,4.1,4.4c2.6,1.2,2.7-.5,5.8,2.7,3.3,3.4,9.4,11.7,10,16.3s.6,12.3.6,17.7-.5,9.4.2,11.5,5.2,5.5,6.2,7.2c1.8,2.8,2.1,8,2.8,8.9,1.7,2.2,12-1.3,12.2,6.1-.3,2.1-13,3.9-13.8-.1s1.2-3.1,0-4.7c-3.1-1.7-2.4,3-3.2,4.7s-6.2,3.5-7.7,3.9c-4.8,1.3-16.3.3-19.2,4.1s0,1.6,0,2.8c3.3.2,6.9-.3,10.1,0ZM351.3,175.4c-1.7.5-5.1,8.1-2.6,9.7.9.2,2.5-2.1,3.4-2.7s2-.3,2.8-.9c1.8-1.4.1-7.2-3.6-6.1ZM263.7,249.4c-2.3,2.1.5,5-.9,7.6l1.5,1c3.5,0,2.7-9.6-.6-8.6Z"/>
    <path d="M318.6,217.7c-.4.3-.4,1.7-2.4,2.2s-7,.4-8.1-.2c-1.5-3.4-11.3-13.8-3.9-15s7,.9,11.4,2.6,5.7,1.5,8.8,3.5,4.3,6.1.9,7.7-5-1.7-6.6-.8Z"/>
    <path d="M301.9,286.2c8.9-2.8-1.1-6.2-1.2-11,6.1-.9,10.7,3.8,14.6,7.7.3,2-12.4,7.6-13.4,3.3Z"/>
    <path d="M137.8,123.2c-3.2-.5-1.7-9,.3-8.6s0,7.1-.3,8.6Z"/>
    <path d="M342.3,92c.6,2.6-7.6,2.8-8,2.4l.4-1.9,7.6-.6Z"/>
    <path d="M319.5,317.5c3.7-.9,1.3,5.2-.7,4.8-1.7-1.1-1.1-4.4.7-4.8Z"/>
    <path d="M361.7,138.6c3.2-1,4.5,2.1,2.1,3.3s-4.3-2.6-2.1-3.3Z"/>
  </g>
</svg>